<svg width="32" height="32" viewBox="0 0 32 32" fill="none" xmlns="http://www.w3.org/2000/svg">
<path d="M18.0007 8C17.2643 8 16.6673 8.59696 16.6673 9.33333V13.3333H22.0007C22.1523 13.33 22.2961 13.4005 22.3863 13.5225C22.4764 13.6445 22.5017 13.8027 22.454 13.9467L21.4673 16.88C21.3764 17.1492 21.1248 17.3312 20.8407 17.3333H16.6673V27.3333C16.6673 27.7015 16.3688 28 16.0007 28H12.6673C12.2991 28 12.0007 27.7015 12.0007 27.3333V17.3333H10.0007C9.63246 17.3333 9.33398 17.0348 9.33398 16.6667V14C9.33398 13.6319 9.63246 13.3333 10.0007 13.3333H12.0007V9.33333C12.0007 6.38781 14.3885 4 17.334 4H22.0007C22.3688 4 22.6673 4.29848 22.6673 4.66667V7.33333C22.6673 7.70152 22.3688 8 22.0007 8H18.0007Z" fill="white"/>
</svg>
