<svg width="145" height="145" viewBox="0 0 145 145" fill="none" xmlns="http://www.w3.org/2000/svg">
    <path d="M64.9911 69.5168L61.515 66.6964L57.2515 62.433L50.824 56.9237L45.3799 51.9387L40.1983 48.3315H38.0341L36.3287 50.1023L33.8364 54.3L32.6558 58.1043L31.6719 62.1053V65.7125V68.4676L32 69.5168L32.9835 70.4545L34.6232 71.2875L35.6729 71.6157H49.0528L60.1376 71.9438H64.2039L64.9911 71.2875V70.2383" stroke="white" stroke-width="3"/>
    <path d="M61.0833 69.4243L58.6732 67.1561L50.7807 59.7363L44.59 54.4906L39.8641 50.8987L38.9191 50.6152L37.7376 52.1748L35.9416 56.0027L34.7602 60.4925L34.1457 64.0369L33.7676 66.8722V68.2429L34.8548 69.0462L36.0834 69.4243H60.3746" stroke="white" stroke-width="3"/>
    <path d="M65.2619 75.8279L62.8217 75.3398H57.3562H49.8409H43.8386L41.3013 76.0717L38.6661 77.0478L36.1771 78.7069L35.3965 80.2686V82.5133V85.5391L36.1771 88.3694L37.5925 90.9558L39.0074 93.1031L41.2034 94.7622L43.4973 95.4941H46.1813L48.8161 94.6647L52.2324 92.5663L56.478 89.3942L60.3332 85.9296L63.0172 83.0989L65.5549 80.0735L66.2867 78.4631V77.2432L65.9938 76.2184L65.2619 75.8279Z" stroke="white" stroke-width="3"/>
    <path d="M67.4433 74.3088L65.487 73.1348H62.1394H51.662H43.141H42.6195L40.402 73.722L37.0109 75.1349L34.6633 77.0911L33.2285 79.2648L32.707 81.4384L33.4897 87.5251L34.9679 91.2203L36.7936 94.2638L39.3152 97.0896L41.6628 97.7417L44.5324 98.0458L48.1404 97.5677L51.0967 96.6115L53.6617 95.2201L56.1833 93.0464L59.6612 90.0033L62.4439 87.3945L65.487 84.134L67.6607 80.9169L68.7041 78.3519V76.5258L68.052 75.3398L67.8347 74.6129L67.4433 74.3088Z" stroke="white" stroke-width="3"/>
    <path d="M70.0415 78.1382L71.3226 77.3184L72.9111 77.7283L73.7822 78.3432L74.4483 79.7267V81.8277L75.1657 87.4639V92.9467L75.4732 97.8147L75.7294 101.453L75.3195 104.22L73.9872 106.73L71.9177 109.856L70.0415 111.035H65.0711L61.0234 110.01L58.0513 108.985L55.1818 105.911L54.5156 104.168V100.325L55.233 98.0461L57.7951 94.3815L60.2035 91.307L63.073 88.3862L68.1456 81.2127L69.1192 79.0093L69.5291 78.3944L70.0415 78.1382Z" stroke="white" stroke-width="3"/>
    <path d="M70.4373 81.4991L70.9642 80.3243L71.5312 79.8784L72.22 80.1619V82.0665L72.4225 86.1183L72.6659 90.2917L73.1924 96.2477L73.5978 98.3549V100.745L73.3953 102.569L72.8684 104.189L71.6936 105.851L70.4373 107.755L69.789 108.687L68.3302 108.971L64.5623 108.606L60.7129 107.715L57.7144 106.054L56.5801 103.46L56.7826 100.988L58.6058 97.3015L62.0093 93.0873L64.4813 90.0892L66.7095 86.6448L70.4373 81.4991Z" stroke="white" stroke-width="3"/>
    <path d="M78.7969 85.1041L79.4221 88.7869L80.1519 94.8326L80.4995 101.087L81.3681 103.936L82.619 105.465L84.2868 106.716L86.6146 106.959L89.6375 106.125L91.757 104.422L93.5637 102.928L94.1542 100.184V98.046L93.529 97.0914L87.5874 91.4626L83.1748 88.0923L79.9436 85.4169L79.0052 84.583" stroke="white" stroke-width="3"/>
    <path d="M75.0508 80.1953L76.0599 84.5827L77.2711 89.4126L77.6075 96.6791L78.6166 102.97L79.9622 105.762L81.5771 107.343L82.8218 108.487L84.4363 109.159L86.4749 108.971L88.877 108.386L90.6936 107.276L92.6111 106.031L94.1537 105.022L94.9323 104.114L95.6385 103.003L96.1096 101.691L96.3112 99.8747L96.177 98.0457L95.6724 96.7464L94.6967 95.4939L93.281 93.5232L89.5424 90.4701L85.3058 86.7319L81.8168 84.1773L78.5146 80.9375L77.2682 79.5043L76.5207 79.0684H75.7293L75.0508 79.5043" stroke="white" stroke-width="3"/>
    <path d="M76.3379 76.0666L76.8185 74.6786L77.6727 74.198L78.4735 73.6641H81.0894H86.802L95.0776 73.9843L102.873 74.2513L107.784 74.8654L110.827 77.3184L112.216 78.8428L113.016 81.1388L112.696 82.8471L111.949 84.3418L110.294 87.1411L108.425 89.9479L105.649 93.2046L103.406 94.1761L101.11 94.646L98.0674 94.1761L95.0243 92.1901L91.2336 89.3073L85.6817 85.0894L80.2889 81.352L77.3524 78.6829L76.3379 77.6151V76.5472V76.0666Z" stroke="white" stroke-width="3"/>
    <path d="M110.2 82.0852L109.395 83.8663L108.188 85.5903L107.212 87.1408L106.235 88.8083L104.568 90.5893L102.96 91.9683L100.776 92.2555L98.7652 91.9683L95.6621 89.7848L93.1914 88.176L89.2842 85.1308L82.5037 80.3616L78.9986 77.3181L78.5391 75.937H85.377L95.6621 76.454L102.385 76.6842L105.373 76.8565L107.614 77.9483L109.223 79.0682L110.2 80.5914V81.2806V82.0852Z" stroke="white" stroke-width="3"/>
    <path d="M80.9206 69.8241H84.8245H89.3561H93.5389H96.7457H99.9525H105.176L107.227 69.5745L109.278 67.4029L110.2 65.4322V62.2948L110.002 59.7612L109.479 58.112L108.835 56.4231L107.991 54.2916L106.905 52.6824L105.819 51.2749H104.13L102.843 51.7977L101.074 53.0849L98.9417 54.5325L96.6494 55.9805L94.3695 57.4686L92.386 58.7558L88.4846 62.456L85.9109 64.3061L83.779 65.8743L81.9289 67.2822L80.9206 68.3277L80.7227 69.0117L80.9206 69.8241Z" stroke="white" stroke-width="3"/>
    <path d="M81.2694 64.8624L85.1497 62.1508L89.9181 58.1303L93.5179 54.9513L97.6321 52.24L100.998 50.0895L103.429 49.1543H105.86L107.309 49.6217L108.759 51.2747L111.096 55.1385L112.172 58.8316L112.452 61.9173V66.1249L111.657 67.4336L110.488 69.2102L107.029 71.9219L103.896 72.5297H95.2477H86.4754H80.9421L79.1656 72.1086L78.5387 71.3607L78.3242 69.8238L78.7966 68.0415L79.5396 66.8262L80.4747 65.9377L81.2694 64.8624Z" stroke="white" stroke-width="3"/>
    <path d="M46.7344 41.0618L49.3874 39.3208L52.538 37.248L56.5803 35.0925L59.6684 33.8486H61.0838L62.9016 34.5949L65.1228 37.4554L66.8816 41.0618L68.042 44.5442L68.7031 47.9431V51.923V58.7217V64.9397V66.5981L66.2873 65.4373L61.5751 62.5355L57.0282 57.2828L54.3736 54.3025L51.9057 52.2069L49.2977 50.0184L47.1092 47.5501L46.7344 46.3393V43.4057V41.9622V41.0618Z" stroke="white" stroke-width="3"/>
    <path d="M70.4961 68.3453L70.8556 67.7804L71.061 64.6476V59.1527V54.3765V48.7787L70.7788 46.365L70.0341 42.616L69.058 39.2783L67.2608 36.2996L65.4632 34.0912L63.3578 32.1395L61.0845 30.9072L58.8386 31.4721L56.5789 32.6019L53.8569 34.0912L51.4432 35.3752L47.9509 37.4807L45.7942 39.1241L44.5615 40.5105L43.9453 43.0784V44.6702L44.3561 46.9298L45.0239 48.6762L47.0781 51.2747L49.2348 53.1442L53.0354 56.4307L57.7195 61.9772L60.3279 64.1339L64.3334 66.5977L67.3633 68.3453L69.1097 68.9614L69.6746 68.6019L70.4961 68.3453Z" stroke="white" stroke-width="3"/>
    <path d="M75.6955 35.5035L76.4534 33.8489L77.7319 32.9935L80.0523 32.4253L83.1309 32.9935L87.2034 34.3671L92.5078 37.161L96.2018 39.6711L97.4328 40.429L97.2436 43.9808L95.8703 47.3904L93.2182 50.2236L85.0723 57.0516L82.4206 58.8988L80.0998 61.1245L76.8794 64.5342L75.364 66.5979L74.3223 66.9496V65.3396V60.8423V54.7784L74.5591 45.9226V39.6711L75.2219 36.0717L75.6955 35.5035Z" stroke="white" stroke-width="3"/>
    <path d="M75.5206 68.9614H75.0508H74.321L73.5978 68.8118L72.7982 68.2266L71.918 67.5217L72.256 59.4994V49.1543V45.6223V42.3697L72.5271 40.3101V37.979L73.3399 35.1061L75.183 32.425L77.0802 30.4443H80.2787L85.2657 30.9068L90.144 33.1548L96.5947 36.7864L99.0882 38.5211L99.7386 39.5509L99.3593 45.1884L98.0043 47.8988L95.7273 51.2746L90.6862 56.0298L86.7835 58.7944L80.3328 63.8901L78.0422 66.3047L75.9991 68.8118L75.5206 68.9614Z" stroke="white" stroke-width="3"/>
    <!--            <path d="M46.6559 23.375L47.9235 22.3312L50.1373 22.8544L50.7239 22.997L54.0429 23.7988L52.7753 24.8426L50.5801 24.304L50.0275 24.1647L46.6559 23.375ZM49.7682 17.8094C50.5971 18.8161 51.1316 19.8357 51.3718 20.8682C51.612 21.9008 51.579 22.8768 51.2726 23.7964C50.9663 24.716 50.4061 25.5109 49.592 26.1811C48.778 26.8514 47.8904 27.2486 46.9291 27.3728C45.9678 27.497 45.0036 27.3421 44.0363 26.9082C43.0691 26.4742 42.171 25.754 41.3422 24.7473C40.5133 23.7407 39.9787 22.7211 39.7385 21.6885C39.4983 20.656 39.5314 19.6799 39.8377 18.7603C40.1441 17.8408 40.7043 17.0459 41.5183 16.3756C42.3323 15.7054 43.22 15.3081 44.1812 15.1839C45.1425 15.0598 46.1068 15.2146 47.074 15.6486C48.0413 16.0825 48.9393 16.8028 49.7682 17.8094ZM48.6497 18.7304C47.9692 17.9039 47.2566 17.3203 46.512 16.9794C45.7704 16.6359 45.0448 16.5113 44.3352 16.6056C43.6287 16.6972 42.9865 16.981 42.4086 17.4568C41.8307 17.9327 41.4274 18.5097 41.1987 19.1881C40.9731 19.8639 40.9562 20.5999 41.1478 21.3961C41.3426 22.1898 41.7802 22.9999 42.4607 23.8264C43.1411 24.6528 43.8522 25.2377 44.5937 25.5812C45.3384 25.9221 46.064 26.0467 46.7705 25.955C47.4801 25.8608 48.1239 25.5757 48.7018 25.0999C49.2797 24.6241 49.6814 24.0483 49.907 23.3725C50.1356 22.6941 50.1526 21.9581 49.9579 21.1644C49.7662 20.3682 49.3302 19.5568 48.6497 18.7304Z" fill="black"/>-->
    <path d="M37.0662 29.2198C37.6163 29.888 37.9365 30.3344 38.0266 30.5579C38.1167 30.7819 38.0613 30.9761 37.8605 31.1418C37.6642 31.3034 37.4753 31.329 37.2948 31.2191C37.1142 31.1092 36.7526 30.7244 36.21 30.0657L31.8466 24.7663C31.3656 24.1824 31.1172 23.7973 31.1007 23.6105C31.0846 23.4241 31.1536 23.2675 31.3077 23.1402C31.49 22.9902 31.6705 22.965 31.8503 23.0638C32.0301 23.163 32.3371 23.4766 32.7722 24.0047L37.0662 29.2198ZM41.6499 30.8443C41.3086 31.1253 41.0656 31.2703 40.9201 31.2794C40.7751 31.2885 40.5908 31.172 40.3676 30.9298C40.7379 30.4368 40.9747 29.9695 41.0776 29.5277C41.1805 29.0864 41.1334 28.6454 40.9354 28.2049C40.7371 27.7644 40.2226 27.0396 39.392 26.0304L36.3567 22.3447C35.753 21.6112 35.2595 21.0905 34.8765 20.7827C34.4938 20.4748 34.0326 20.2529 33.4934 20.1169C32.9541 19.981 32.3338 20.0136 31.6329 20.2141C30.9317 20.4153 30.2519 20.7868 29.5928 21.3294C29.046 21.7794 28.6237 22.2803 28.3249 22.8319C28.0266 23.3836 27.8819 23.956 27.891 24.5477C27.9005 25.1399 28.0262 25.6759 28.2675 26.1548C28.5092 26.6342 28.9477 27.2594 29.5824 28.0305L32.4739 31.5423C33.3132 32.5613 34.0202 33.263 34.5955 33.6477C35.1711 34.032 35.836 34.1924 36.5906 34.1279C37.3452 34.0634 38.0642 33.7655 38.7481 33.2337C39.0969 33.6576 39.3771 33.9192 39.5887 34.0188C39.7998 34.1184 40.0494 34.1192 40.3375 34.0213C40.6255 33.9238 41.0383 33.6535 41.5755 33.2109L43.8046 31.3757L42.6735 30.0017L41.6499 30.8443Z" stroke="white"/>
    <!--            <path d="M57.6601 8.02207L59.0486 7.46219L62.1099 15.0543C62.426 15.8382 62.5234 16.6125 62.4022 17.3774C62.2832 18.137 61.9612 18.8289 61.436 19.4529C60.9094 20.0731 60.1962 20.5646 59.2967 20.9274C58.3971 21.2901 57.5425 21.4307 56.7329 21.3493C55.9218 21.2641 55.2081 20.9899 54.5917 20.5268C53.9776 20.0584 53.5125 19.4323 53.1964 18.6484L50.1351 11.0563L51.5236 10.4964L54.5398 17.9765C54.7656 18.5364 55.0897 18.9851 55.5121 19.3225C55.9331 19.6561 56.4216 19.8562 56.9778 19.9226C57.5363 19.9839 58.1347 19.8858 58.7729 19.6284C59.4112 19.3711 59.9102 19.0266 60.27 18.5952C60.6283 18.1599 60.8414 17.6769 60.9095 17.1461C60.9797 16.6101 60.902 16.0621 60.6762 15.5022L57.6601 8.02207Z" fill="black"/>-->
    <path d="M47.7088 10.9846L51.7598 21.0309C52.0338 21.7103 52.1751 22.1541 52.1842 22.3628C52.1933 22.5715 52.0854 22.7207 51.8611 22.8112C51.6643 22.8905 51.5003 22.8603 51.3689 22.7207C51.2379 22.581 51.0523 22.2136 50.8122 21.6185L46.6901 11.3953L43.1445 12.8252L46.3976 20.8925C47.0179 22.4306 47.4526 23.4285 47.7026 23.886C47.9522 24.3435 48.3187 24.7257 48.8018 25.0336C49.2845 25.3414 49.8924 25.5042 50.6242 25.5224C51.3561 25.541 52.1288 25.3856 52.9429 25.0575C53.6781 24.7608 54.2711 24.3897 54.7211 23.9439C55.1711 23.4984 55.4732 22.988 55.6265 22.414C55.7802 21.8396 55.8063 21.3297 55.705 20.8842C55.6038 20.4387 55.3451 19.6999 54.9281 18.6668L51.2544 9.55518L47.7088 10.9846Z" stroke="white"/>
    <!--            <path d="M65.7981 17.886L64.3259 18.0086L67.6185 6.05789L69.0681 5.93722L74.2914 17.179L72.8192 17.3016L68.5413 7.82835L68.4507 7.83589L65.7981 17.886ZM65.9645 13.311L71.8986 12.817L72.0023 14.0627L66.0682 14.5567L65.9645 13.311Z" fill="black"/>-->
    <path d="M66.4688 16.1166C66.4601 14.812 66.5328 12.7405 66.6874 9.90273C67.0849 12.3297 67.449 14.3645 67.78 16.0075L66.4688 16.1166ZM63.5087 6.87821L62.7852 21.69L66.7234 21.3619L66.7333 18.7097L68.0961 18.5965L68.5197 21.2127L72.4129 20.8883L69.0148 6.41992L63.5087 6.87821Z" stroke="white"/>
    <!--            <path d="M78.3197 7.41257L78.5674 6.18736L87.1216 7.91686L86.8739 9.14207L83.2873 8.41694L81.2291 18.5973L79.8479 18.3181L81.9062 8.1377L78.3197 7.41257Z" fill="black"/>-->
    <path d="M80.9823 6.89404L80.3992 9.77764L82.615 10.2256L80.2852 21.7513L84.032 22.5088L86.3623 10.9835L88.5868 11.4331L89.1699 8.5495L80.9823 6.89404Z" stroke="white"/>
    <!--            <path d="M86.2341 21.1997L92.0615 10.2956L95.746 12.2646C96.5978 12.7199 97.2193 13.2391 97.6104 13.8223C98.0034 14.402 98.1965 15.014 98.1898 15.6584C98.1831 16.3028 98.0081 16.9462 97.6647 17.5887C97.3214 18.2312 96.8856 18.7307 96.3573 19.0872C95.8291 19.4438 95.2176 19.6189 94.5227 19.6127C93.8298 19.6028 93.0609 19.3722 92.2162 18.9207L89.2346 17.3273L89.8719 16.1346L92.8109 17.7053C93.3931 18.0164 93.9071 18.1816 94.3531 18.2009C94.8027 18.2222 95.1908 18.1193 95.5175 17.8923C95.8496 17.6636 96.1323 17.331 96.3656 16.8944C96.5989 16.4578 96.7212 16.0326 96.7325 15.6188C96.7437 15.205 96.6175 14.8135 96.3538 14.4445C96.0921 14.0719 95.6666 13.7281 95.0774 13.4132L92.756 12.1726L87.5545 21.9054L86.2341 21.1997ZM93.9845 19.0444L94.0502 25.3768L92.5168 24.5573L92.4937 18.2477L93.9845 19.0444Z" fill="black"/>-->
    <path d="M102.194 16.8264C102.272 17.0331 102.201 17.3422 101.982 17.7533L101.601 18.4658C101.296 19.0373 101.039 19.334 100.831 19.3567C100.624 19.3799 100.33 19.2898 99.9509 19.0873L101.492 16.2045C101.882 16.4124 102.115 16.6198 102.194 16.8264ZM92.377 25.1495L95.7482 26.9513L98.8727 21.1052C99.3372 21.3535 99.5798 21.5899 99.6004 21.8134C99.6215 22.0378 99.4467 22.4969 99.076 23.1908L96.7734 27.4992L99.9046 29.1725L101.732 25.7529C102.291 24.7066 102.605 24.0524 102.673 23.79C102.741 23.528 102.734 23.1966 102.653 22.7966C102.572 22.3961 102.242 21.9349 101.663 21.4126C102.437 21.737 103.042 21.7928 103.478 21.5796C103.915 21.3667 104.403 20.756 104.942 19.7468C105.533 18.6418 105.785 17.7422 105.699 17.0479C105.614 16.3533 105.323 15.7946 104.825 15.3706C104.327 14.947 103.283 14.3098 101.692 13.4598L99.3062 12.1841L92.377 25.1495Z" stroke="white"/>
    <!--            <path d="M100.867 84.8641L99.668 85.9865L97.4254 85.6052L96.8309 85.5003L93.4676 84.9114L94.6662 83.789L96.8912 84.1868L97.4515 84.2906L100.867 84.8641ZM98.1149 90.6165C97.2236 89.6647 96.6253 88.6812 96.3198 87.666C96.0143 86.6508 95.9852 85.6746 96.2324 84.7374C96.4796 83.8002 96.9881 82.9713 97.7578 82.2506C98.5275 81.5298 99.388 81.0769 100.339 80.8918C101.291 80.7067 102.263 80.7998 103.256 81.1713C104.249 81.5428 105.191 82.2044 106.082 83.1563C106.973 84.1081 107.572 85.0916 107.877 86.1068C108.183 87.1219 108.212 88.0981 107.965 89.0353C107.717 89.9725 107.209 90.8015 106.439 91.5222C105.67 92.2429 104.809 92.6958 103.858 92.881C102.906 93.0661 101.934 92.9729 100.941 92.6015C99.9483 92.23 99.0062 91.5683 98.1149 90.6165ZM99.1725 89.6262C99.9042 90.4077 100.653 90.9448 101.417 91.2376C102.179 91.5331 102.911 91.6113 103.614 91.472C104.313 91.3356 104.936 91.0115 105.482 90.4999C106.028 89.9882 106.394 89.3866 106.579 88.6951C106.761 88.0063 106.731 87.2707 106.489 86.4883C106.245 85.7086 105.756 84.928 105.025 84.1466C104.293 83.3651 103.546 82.8266 102.784 82.5311C102.019 82.2383 101.287 82.1601 100.588 82.2966C99.8858 82.4358 99.2615 82.7613 98.715 83.2729C98.1686 83.7846 97.8044 84.3848 97.6223 85.0736C97.4372 85.7651 97.4672 86.5007 97.712 87.2804C97.954 88.0628 98.4408 88.8448 99.1725 89.6262Z" fill="black"/>-->
    <path d="M111.149 112.386C110.558 111.754 110.209 111.329 110.106 111.112C110.001 110.894 110.044 110.696 110.234 110.519C110.42 110.345 110.606 110.307 110.794 110.405C110.981 110.503 111.366 110.864 111.949 111.487L116.641 116.498C117.158 117.05 117.431 117.419 117.459 117.604C117.487 117.789 117.429 117.95 117.283 118.086C117.11 118.248 116.931 118.285 116.746 118.197C116.561 118.11 116.234 117.816 115.767 117.317L111.149 112.386ZM106.471 111.057C106.793 110.755 107.027 110.594 107.172 110.576C107.317 110.557 107.507 110.662 107.745 110.89C107.407 111.405 107.201 111.887 107.126 112.334C107.051 112.781 107.127 113.218 107.353 113.645C107.578 114.072 108.138 114.763 109.031 115.717L112.295 119.202C112.944 119.895 113.469 120.384 113.871 120.667C114.273 120.95 114.747 121.142 115.295 121.243C115.841 121.344 116.458 121.272 117.145 121.027C117.831 120.782 118.487 120.368 119.109 119.785C119.627 119.3 120.016 118.774 120.279 118.204C120.542 117.635 120.65 117.055 120.603 116.464C120.556 115.874 120.396 115.347 120.125 114.885C119.853 114.422 119.376 113.825 118.693 113.096L115.584 109.776C114.682 108.812 113.932 108.157 113.333 107.81C112.733 107.463 112.06 107.345 111.311 107.458C110.562 107.57 109.864 107.913 109.215 108.488C108.84 108.087 108.544 107.843 108.327 107.757C108.109 107.671 107.86 107.686 107.579 107.802C107.298 107.919 106.903 108.214 106.395 108.69L104.287 110.664L105.503 111.962L106.471 111.057Z" stroke="white"/>
    <!--            <path d="M90.8632 100.886L89.5131 101.534L85.9747 94.1517C85.6094 93.3895 85.4628 92.6229 85.5351 91.8519C85.6054 91.0862 85.8828 90.3753 86.3672 89.7191C86.8533 89.0666 87.5337 88.5307 88.4083 88.1114C89.2829 87.6922 90.1268 87.4974 90.94 87.5272C91.7549 87.5606 92.4846 87.7887 93.1292 88.2117C93.7719 88.6401 94.2759 89.2353 94.6413 89.9974L98.1797 97.3793L96.8296 98.0264L93.3434 90.7534C93.0824 90.2091 92.7304 89.782 92.2874 89.4722C91.846 89.166 91.3457 88.9974 90.7864 88.9665C90.2252 88.941 89.6343 89.0769 89.0137 89.3744C88.3931 89.6719 87.917 90.0474 87.5854 90.5009C87.2556 90.958 87.0736 91.4536 87.0395 91.9877C87.0035 92.5271 87.116 93.069 87.3769 93.6134L90.8632 100.886Z" fill="black"/>-->
    <path d="M101.689 131.262L97.0062 121.493C96.6897 120.833 96.5203 120.399 96.498 120.191C96.4761 119.984 96.574 119.828 96.7922 119.723C96.9831 119.632 97.1488 119.651 97.2889 119.782C97.4286 119.913 97.6372 120.268 97.9145 120.847L102.679 130.787L106.126 129.134L102.367 121.29C101.649 119.795 101.152 118.827 100.873 118.386C100.595 117.945 100.205 117.587 99.7035 117.31C99.2018 117.034 98.5852 116.91 97.8542 116.939C97.1224 116.967 96.3608 117.171 95.5694 117.55C94.8545 117.893 94.2863 118.301 93.8656 118.775C93.4449 119.248 93.1759 119.777 93.0594 120.359C92.9428 120.942 92.9494 121.453 93.0784 121.891C93.2081 122.329 93.5135 123.05 93.9949 124.055L98.2414 132.914L101.689 131.262Z" stroke="white"/>
    <!--            <path d="M82.1769 93.5577L83.6383 93.3416L81.113 105.478L79.6741 105.69L73.7458 94.8039L75.2072 94.5879L80.0794 103.77L80.1693 103.756L82.1769 93.5577ZM82.302 98.134L76.4114 99.0047L76.2286 97.7681L82.1192 96.8974L82.302 98.134Z" fill="black"/>-->
    <path d="M82.6382 127.334C82.7295 128.636 82.789 130.708 82.815 133.55C82.2638 131.153 81.7712 129.145 81.336 127.527L82.6382 127.334ZM86.1801 136.366L85.9594 121.538L82.0501 122.116L82.2088 124.763L80.8559 124.963L80.2666 122.379L76.4023 122.951L80.7141 137.173L86.1801 136.366Z" stroke="white"/>
    <!--            <path d="M70.3472 104.807L70.178 106.046L61.5311 104.864L61.7003 103.626L65.3257 104.121L66.7317 93.8303L68.1279 94.021L66.7218 104.312L70.3472 104.807Z" fill="black"/>-->
    <path d="M68.7413 137.462L69.1396 134.547L66.8994 134.242L68.4916 122.591L64.7035 122.074L63.1121 133.724L60.8632 133.416L60.4648 136.331L68.7413 137.462Z" stroke="white"/>
    <!--            <path d="M61.5073 89.5549L56.3858 100.808L52.5836 99.0774C51.7044 98.6773 51.0511 98.1987 50.6237 97.6416C50.1946 97.0881 49.9629 96.4896 49.9286 95.8461C49.8943 95.2026 50.028 94.5493 50.3297 93.8863C50.6315 93.2233 51.0346 92.697 51.5391 92.3076C52.0435 91.9181 52.6427 91.7044 53.3365 91.6664C54.0287 91.6321 54.8107 91.8133 55.6825 92.2101L58.7595 93.6105L58.1993 94.8413L55.1663 93.4609C54.5655 93.1875 54.042 93.0554 53.5956 93.0645C53.1457 93.0719 52.7649 93.1993 52.4533 93.4466C52.1365 93.696 51.8755 94.0459 51.6704 94.4965C51.4654 94.947 51.3704 95.3791 51.3855 95.7928C51.4007 96.2065 51.5515 96.5891 51.8381 96.9407C52.1231 97.2959 52.5696 97.6119 53.1777 97.8886L55.5733 98.9789L60.1446 88.9347L61.5073 89.5549ZM53.9098 92.1993L53.4412 85.8839L55.0236 86.6041L55.4483 92.8995L53.9098 92.1993Z" fill="black"/>-->
    <path d="M46.9421 128.9C46.8508 128.699 46.902 128.386 47.0946 127.962L47.4293 127.226C47.6975 126.637 47.9347 126.324 48.1409 126.288C48.3467 126.252 48.6447 126.323 49.0364 126.501L47.6822 129.476C47.2801 129.293 47.0335 129.101 46.9421 128.9ZM56.2091 119.969L52.73 118.385L49.9844 124.419C49.5046 124.2 49.248 123.98 49.2125 123.758C49.1773 123.536 49.3228 123.067 49.6484 122.35L51.6721 117.904L48.441 116.434L46.8343 119.962C46.3433 121.042 46.0722 121.715 46.021 121.981C45.9693 122.247 45.997 122.577 46.1036 122.972C46.2103 123.366 46.569 123.805 47.1797 124.29C46.3867 124.015 45.7801 123.998 45.3573 124.238C44.9358 124.479 44.4879 125.119 44.0139 126.16C43.4949 127.301 43.3002 128.215 43.4291 128.903C43.5593 129.59 43.8854 130.129 44.409 130.521C44.9325 130.912 46.0152 131.481 47.657 132.228L50.1195 133.349L56.2091 119.969Z" stroke="white"/>
    <circle cx="71.9184" cy="71.3838" r="45.1802" stroke="white" stroke-width="3"/>
    <circle cx="71.9426" cy="71.9436" r="71.3235" stroke="white" stroke-width="3"/>
    <!--            <path d="M64.9922 70.5942L65.2939 69.3905L65.4922 69.04" fill="black"/>-->
    <path d="M64.9922 70.5942L65.2939 69.3905L65.4922 69.04" stroke="white" stroke-width="3"/>
    <path d="M140.569 60.5807L140.239 60.6224H139.711L139.332 60.6641L138.613 60.7584L138.185 60.8315L137.955 60.7059L137.756 60.5807L137.516 60.5075L137.576 60.6695L137.716 60.8315L137.177 60.9464L136.06 61.1452L135.73 61.2183L135.421 61.1138L135.132 61.0406H134.972L135.142 61.2183L135.182 61.3228L134.872 61.4063L134.095 61.6778L133.376 61.9915L132.748 62.3469L132.548 62.5035L133.646 62.1692L134.783 62.0125L136.06 62.1171L137.217 62.3989L138.424 62.8275L139.112 63.3291L139.821 64.0606L140.169 64.5833L140.409 65.1999L140.569 65.7536V66.0884V66.297L140.249 66.1929L139.691 65.8793L139.042 65.5342L138.314 65.1581L137.835 64.8862L137.725 64.7193L137.556 64.3536L137.446 64.228L137.346 64.5102L137.296 64.7193L136.977 64.6147L136.259 64.4056L135.611 64.2073L135.451 64.092L135.212 63.7263L135.102 63.6011L135.082 63.8833L135.072 63.9982L134.434 63.7994L133.536 63.6114L132.818 63.4548H132.449L132.798 63.6635L133.506 63.9565L134.294 64.3742L135.351 65.0433L135.88 65.4718L137.007 66.7781L137.217 67.2066L137.566 68.0008L137.636 68.3562L137.716 68.91L137.756 69.5054L137.766 70.2997L137.686 70.7282L137.556 71.3448L137.436 71.6481L137.296 72.0556L137.177 72.2857L137.057 72.4424L136.898 72.2229L136.698 71.7419L136.189 70.5299L135.98 69.9968L135.96 69.8716L136.05 69.5265L136.12 69.0773L136.079 68.8054L135.87 69.1711L135.66 69.4431L135.082 68.4711L134.434 67.3843L134.543 66.8929L134.583 66.5376L134.454 66.4747L134.404 66.7152L134.314 66.9872L134.214 67.0078L133.666 66.1929L133.177 65.5553L132.698 64.9908L132.159 64.3428L132.359 64.8342L132.808 65.597L133.556 67.269L133.736 67.9277L134.005 69.5054V70.1642L133.825 71.4179L133.596 72.1812L133.226 72.8916L132.997 73.2155L132.648 73.5709L132.459 72.8081L132.159 71.2927L131.94 70.5088L132.349 70.0803L132.369 69.934L131.89 70.1431L131.79 69.3488L131.611 67.8438L132 67.5409L132.009 67.3946L131.611 67.5512L131.232 65.3148L130.962 64.7296L130.713 65.5342L130.334 66.7363L129.837 68.3715L129.069 72.5465L128.85 75.3235L128.758 79.1732L128.996 82.4288L129.252 84.5359H127.789H125.486H125.193L125.267 82.3907L125.504 79.6328L125.888 76.7215L126.528 74.0019L127.003 72.0295L127.552 70.21L129.179 66.1305L129.746 64.7899L129.855 64.311L128.978 64.7705L128.118 65.173L127.589 65.5367L127.417 65.4792L127.277 65.173L127.113 65.1156L126.985 65.4792L127.003 65.8433L126.217 66.3223L124.956 66.8392L124.791 66.1879L124.554 66.4177L124.389 66.9541L121.373 67.9884L122.05 66.5326L123.603 64.5982L125.523 63.392L128.173 62.894L129.782 63.1043L129.691 62.8171L128.704 62.4915L127.808 62.2617L128.155 61.9361L128.265 61.7638L127.661 61.8787L127.417 62.0894L126.016 61.8787L125.139 61.6489L125.285 61.2084L124.974 61.2658L124.682 61.6299L124.623 61.7088L123.887 61.6394L122.6 61.5349L121.513 61.3683L121.685 61.139L122.64 60.3608L124.093 59.5199L125.227 59.2141H126.951L127.92 59.5476L129.505 60.5133L130.599 61.6324L130.725 61.7782L130.653 61.3472L130.056 59.7075L129.956 59.6587L130.328 59.5129L130.056 59.3252L129.844 59.2558L128.212 57.0739L128.596 56.9557H128.683L128.344 56.7611L128.039 56.7053L126.454 54.8779H127.025L128.079 54.9614L128.935 55.2255L129.625 55.5866L130.328 56.1635L130.692 56.5388L131.024 57.0739L131.27 57.4421L131.462 58.0049L131.814 59.0889L131.926 60.0616L131.979 60.7778L131.959 61.4447L132.245 61.1113L132.948 60.5067L133.79 59.874L134.732 59.3459L136.065 58.943L137.18 58.95L138.194 59.1099L138.705 59.36L139.547 59.7492L140.025 60.0757L140.469 60.4303L140.569 60.5807Z" stroke="white"/>
    <path d="M110.58 29.0382L110.513 28.8303L110.473 28.563C110.47 28.5472 110.469 28.5311 110.467 28.515L110.461 28.4241C110.453 28.32 110.47 28.2154 110.512 28.1195L110.58 27.9609L110.733 27.7799L111.035 27.6666H111.23L111.651 27.6113L111.851 27.5365L112.246 27.396L112.38 27.3245L112.386 27.2509L112.447 27.0807L112.559 26.9327L112.776 26.7505L112.947 26.6864L113.114 26.6356L113.424 26.6294L113.592 26.643L113.882 26.7649C113.925 26.7831 113.965 26.8058 114.003 26.8327L114.317 27.0538L114.463 27.2183L114.58 27.3885L114.63 27.6187V28.091V28.3956L114.583 28.551L114.468 28.7832C114.447 28.8254 114.422 28.8654 114.392 28.9022L114.247 29.0828L114.15 29.201L113.982 29.446L113.818 29.6746L113.698 29.8299L113.597 29.9601L113.474 30.1453L113.424 30.2424L113.382 30.3085L113.36 30.3473L113.407 30.3291L113.48 30.2903L113.55 30.2126L113.717 30.0886L113.935 29.9779L114.167 29.9167L114.587 29.8419L114.823 29.8213L115.478 29.8258L115.688 29.8585L116.17 29.9572L116.45 30.02C116.485 30.0279 116.519 30.0386 116.551 30.0519L116.989 30.2291C117.006 30.2362 117.023 30.2436 117.039 30.2519L117.428 30.449C117.465 30.4676 117.5 30.4899 117.533 30.5155L117.855 30.7651C117.87 30.7775 117.885 30.7903 117.9 30.804L118.07 30.9626L118.208 31.0763" stroke="white" stroke-width="0.25"/>
    <path d="M110.624 29.0429L110.656 28.9912L110.675 28.9003L110.74 28.8408L110.846 28.7193L110.913 28.6859L111.073 28.647L111.234 28.6259L111.372 28.6156L111.494 28.5743L111.55 28.4656L111.642 28.383L111.85 28.3156L112.106 28.2714H112.309H112.473L112.738 28.2817L112.895 28.2999L113.03 28.2871L113.094 28.2569L113.157 28.228L113.203 28.1792L113.208 28.1474V28.1238L113.201 28.1086L113.183 28.1334L113.172 28.1577L113.153 28.1784L113.104 28.2065L113.052 28.2069L112.98 28.2123H112.802L112.624 28.2044L112.278 28.2098L111.929 28.2135L111.774 28.2631L111.587 28.3354L111.471 28.4602L111.426 28.5201L111.305 28.5553L111.074 28.5759L110.882 28.6288L110.735 28.7251L110.655 28.8284L110.624 28.8602L110.611 28.8764L110.595 28.8123L110.544 28.5135L110.525 28.373L110.563 28.1871L110.661 27.9833L110.777 27.8453L110.966 27.778C111.022 27.7577 111.08 27.7457 111.14 27.7416L111.4 27.7234C111.437 27.7209 111.473 27.7152 111.509 27.7065L111.801 27.6354C111.828 27.6292 111.854 27.6209 111.879 27.6114L112.229 27.4784L112.412 27.385L112.483 27.2936L112.545 27.2052L112.746 27.2308L112.966 27.2965L113.265 27.4598L113.376 27.5672L113.545 27.7383L113.627 27.9003L113.647 28.0234L113.652 28.1974L113.611 28.3396L113.54 28.4065L113.508 28.4854L113.459 28.5392L113.32 28.5871L112.971 28.721L112.794 28.7573L112.661 28.7735L112.614 28.7842L112.576 28.7243L112.459 28.6342L112.335 28.5916L112.152 28.566L111.879 28.5491L111.65 28.6412L111.529 28.7449L111.369 28.8656L111.202 28.8929L111.025 28.871L110.86 28.7772L110.83 28.7652L110.794 28.8045L110.803 28.8231L110.837 28.8528L110.901 28.8879L110.972 28.9338L111.037 28.9524L111.151 28.9697L111.35 28.9491L111.454 28.8912L111.564 28.8028L111.708 28.6888L111.834 28.6478L111.889 28.6106L112.058 28.6189L112.173 28.6412L112.365 28.6751L112.471 28.733L112.534 28.8247L112.603 28.9371L112.612 29.0359L112.504 29.2078L112.386 29.3557L112.179 29.5909L112.089 29.7219L111.984 29.8471L111.878 29.9954L111.673 30.312C111.636 30.3686 111.608 30.4302 111.591 30.4954L111.412 31.1517C111.401 31.1922 111.394 31.2339 111.391 31.2756L111.371 31.5554L111.356 31.6608L111.328 31.8624L111.439 32.1108L111.537 32.3592C111.542 32.3707 111.546 32.3823 111.551 32.3935L111.674 32.6588C111.714 32.7451 111.773 32.822 111.845 32.8832L112.024 33.034C112.037 33.0447 112.049 33.0559 112.061 33.0675L112.324 33.3266L112.528 33.4671L112.834 33.7125C112.849 33.7241 112.863 33.7361 112.876 33.7489L113.242 34.0977C113.28 34.1332 113.321 34.1642 113.366 34.1902L113.809 34.4448L114.325 34.7316L114.65 34.8932C114.701 34.9175 114.754 34.9361 114.809 34.9473L115.398 35.068L116.13 35.2122C116.158 35.2176 116.187 35.2213 116.216 35.2233L116.738 35.2552C116.792 35.2585 116.846 35.2552 116.899 35.2452L117.134 35.201C117.151 35.1977 117.169 35.1936 117.186 35.189L117.516 35.0977C117.544 35.0899 117.572 35.0804 117.598 35.0688L117.88 34.9485L118.055 34.8692L118.227 34.6708L118.364 34.5134C118.387 34.4857 118.414 34.4605 118.441 34.4374L118.518 34.3745C118.575 34.3278 118.623 34.2721 118.66 34.2097L118.855 33.8886L118.868 33.8365H118.823L118.775 33.8857L118.677 34.0658L118.536 34.2675L118.348 34.4295L118.215 34.5547L118.062 34.7564L117.922 34.8601L117.577 34.9919C117.556 34.9998 117.535 35.0064 117.514 35.0122L117.152 35.1097C117.119 35.1184 117.086 35.1246 117.052 35.1283L116.674 35.1684C116.635 35.1725 116.595 35.1733 116.556 35.17L116.188 35.1419C116.155 35.1395 116.121 35.1341 116.088 35.1262L115.784 35.0539C115.771 35.051 115.758 35.0481 115.745 35.0461L115.215 34.9539C115.195 34.9506 115.175 34.9461 115.155 34.9403L114.716 34.82C114.671 34.808 114.629 34.7915 114.589 34.7704L114.242 34.5911L113.98 34.4427L113.314 34.0572C113.275 34.034 113.237 34.0072 113.204 33.9766L112.464 33.308L112.091 32.9894L111.894 32.8232C111.817 32.7588 111.756 32.6769 111.716 32.5844L111.478 32.0335C111.442 31.9517 111.424 31.8641 111.424 31.7748V31.6546C111.424 31.6368 111.425 31.6186 111.426 31.6009L111.456 31.2327L111.502 31.076L111.606 30.6682C111.615 30.6306 111.628 30.5942 111.644 30.5591L111.725 30.3801C111.742 30.3425 111.763 30.3066 111.787 30.2727L111.986 29.9913L112.561 29.2326L112.686 29.0445V28.9127V28.8528L112.856 28.8189L113.115 28.7437C113.13 28.7396 113.144 28.7346 113.159 28.7292L113.529 28.5929L113.654 28.411L113.695 28.24C113.723 28.1226 113.719 27.999 113.681 27.8842C113.65 27.7904 113.598 27.7048 113.53 27.6342L113.469 27.5718C113.448 27.5503 113.426 27.5304 113.403 27.5123L113.16 27.3226C113.089 27.2672 113.008 27.2275 112.921 27.2052L112.66 27.1387L112.509 27.1011" stroke="white" stroke-width="0.25"/>
    <circle cx="113.275" cy="28.0229" r="0.5" stroke="white" stroke-width="0.25"/>
    <path d="M113.075 27.7145C113.075 27.7674 113.03 27.8104 112.975 27.8104C112.92 27.8104 112.875 27.7674 112.875 27.7145C112.875 27.6616 112.92 27.6187 112.975 27.6187C113.03 27.6187 113.075 27.6616 113.075 27.7145Z" stroke="white" stroke-width="0.25"/>
    <path d="M116.52 33.2814L116.512 33.2181L116.453 33.095L116.346 32.9896L116.176 32.9322L115.947 32.857L115.78 32.7834L115.679 32.7429L115.67 32.7247L115.695 32.7231L115.837 32.7698L115.975 32.8057L116.25 32.8842L116.344 32.9128L116.427 32.9714L116.509 33.0495L116.561 33.1355L116.589 33.2363L116.578 33.3252L116.551 33.3144L116.476 33.2847L116.27 33.2103L116.026 33.138L115.855 33.1062L115.808 33.1231L115.844 33.1462L115.941 33.1636L116.092 33.2144L116.316 33.2954L116.529 33.3909L116.658 33.4801L116.733 33.5673L116.731 33.6297L116.723 33.6888L116.653 33.6711L116.475 33.6115L116.18 33.5215L116.108 33.5136L116.003 33.5037L115.941 33.5239L115.968 33.5318L116.083 33.5421L116.22 33.5909L116.328 33.6248L116.435 33.6711L116.567 33.7173L116.72 33.7868L116.787 33.8487L116.817 33.9206L116.787 33.962L116.688 34.0058L116.591 34.0442L116.478 34.0727L116.406 34.1033H116.263H116.094H115.963L115.666 34.0236L115.437 33.9372L115.243 33.8525L115 33.7368L114.793 33.6177L114.653 33.5037L114.514 33.3665L114.391 33.2586L114.316 33.1314L114.299 33.0603L114.267 32.7896V32.6318L114.231 32.4222L114.172 32.2627L114.094 32.047L114.041 31.9615L113.975 31.8858L113.906 31.828L113.824 31.7635L113.791 31.7412L113.777 31.7635V31.8937L113.864 31.9863C113.926 32.0524 113.973 32.1309 114.003 32.2169L114.046 32.34C114.057 32.3722 114.066 32.4057 114.072 32.4396L114.12 32.709C114.122 32.7247 114.125 32.7404 114.127 32.7565L114.153 33.0206C114.168 33.1652 114.231 33.3012 114.332 33.4058L114.451 33.5285C114.484 33.5624 114.52 33.5925 114.559 33.6186L114.771 33.7599C114.798 33.7773 114.825 33.793 114.854 33.8066L115.159 33.95C115.181 33.9603 115.204 33.9698 115.228 33.9777L115.483 34.064C115.497 34.0686 115.51 34.0727 115.524 34.0764L115.815 34.1537C115.859 34.1657 115.904 34.1727 115.95 34.1748L116.171 34.186H116.358H116.393L116.403 34.2004" stroke="white" stroke-width="0.25"/>
    <path d="M116.414 34.1856L116.439 34.1712L116.615 34.1187L116.79 34.0489L116.873 33.9621L116.901 33.9162L116.864 33.8393L116.803 33.7596L116.779 33.717L116.803 33.6803V33.6046L116.794 33.5377L116.757 33.4835L116.677 33.3939L116.619 33.3496L116.6 33.3311" stroke="white" stroke-width="0.25"/>
    <path d="M118.396 31.6169L118.432 31.5132L118.414 31.3665L118.357 31.2367L118.294 31.1474L118.33 30.9718L118.363 30.8218L118.228 30.6693L118.138 30.5598L118.176 30.3842L118.138 30.2949L118.072 30.2428L118.057 30.1709H118.086L118.117 30.0701L118.261 30.0271L118.48 30.0151C118.51 30.0135 118.54 30.0139 118.57 30.0164L118.867 30.0412L119.024 30.1164L119.153 30.2776V30.485L119.087 30.5945L119.102 30.7528L119.123 30.9082L119.111 30.9429L119.252 30.7962L119.327 30.7441L119.553 30.6867L119.697 30.7123L119.805 30.6953L119.907 30.6693L120.048 30.6896L120.156 30.747L120.21 30.8536L120.234 30.9602L120.279 31.0524L120.346 31.1272L120.331 31.1805L120.204 31.2309L120.006 31.1805H119.832H119.73L119.631 31.2627L119.537 31.3144L119.414 31.3433L119.171 31.3578L119.084 31.4123L119.03 31.4239" stroke="white" stroke-width="0.25"/>
    <path d="M118.447 31.5388L118.553 31.5781L118.708 31.5682L118.845 31.5194L118.941 31.4632L119.122 31.5062L119.277 31.5451L119.442 31.4227L119.561 31.3413L119.742 31.3872L119.837 31.3545L119.894 31.293L119.97 31.2822L119.968 31.3107L120.072 31.3446L120.11 31.4847L120.112 31.6897C120.112 31.7219 120.11 31.7546 120.106 31.7876L120.066 32.0641L119.981 32.2116L119.807 32.3273L119.591 32.3174L119.48 32.2488L119.314 32.2558L119.151 32.2686L119.115 32.2558L119.262 32.3976L119.313 32.472L119.362 32.6906L119.328 32.8278L119.341 32.9319L119.363 33.0307L119.335 33.165L119.27 33.2658L119.157 33.3129L119.044 33.3307L118.946 33.3695L118.865 33.4298L118.81 33.4125L118.764 33.2889L118.825 33.1021L118.834 32.9348L118.839 32.8368L118.758 32.7385L118.708 32.6463L118.684 32.5273L118.681 32.2934L118.628 32.2079L118.618 32.155" stroke="white" stroke-width="0.25"/>
    <circle cx="115.053" cy="30.4443" r="7.21727" stroke="white" stroke-width="4"/>
    <path d="M36.1293 119.243L36.0942 119.458L36.0078 119.714C36.0028 119.729 35.9971 119.745 35.9909 119.76L35.9553 119.843C35.9148 119.94 35.8516 120.024 35.771 120.091L35.638 120.201L35.4198 120.293L35.0987 120.256L34.9255 120.167L34.5259 120.024L34.3127 119.999L33.8978 119.944L33.7457 119.947L33.7069 120.01L33.5751 120.134L33.4077 120.214L33.1321 120.277L32.9498 120.256L32.7783 120.226L32.4998 120.089L32.356 120.001L32.1543 119.76C32.1246 119.724 32.0985 119.686 32.0766 119.644L31.8985 119.305L31.8432 119.091L31.8167 118.886L31.877 118.659L32.0923 118.239L32.2316 117.967L32.344 117.85L32.5519 117.696C32.5903 117.668 32.6312 117.644 32.6742 117.625L32.8862 117.531L33.0258 117.47L33.2874 117.328L33.5374 117.2L33.7151 117.116L33.8643 117.046L34.0585 116.938L34.1474 116.874L34.2148 116.835L34.2519 116.81L34.2019 116.804L34.1189 116.806L34.0214 116.843L33.8164 116.877L33.5717 116.876L33.337 116.825L32.93 116.7L32.7097 116.611L32.1291 116.308L31.9568 116.183L31.5733 115.876L31.3526 115.692C31.3254 115.669 31.3002 115.644 31.277 115.618L30.9679 115.26C30.9563 115.246 30.9448 115.232 30.934 115.217L30.6778 114.864C30.6534 114.831 30.6324 114.795 30.6146 114.757L30.4423 114.388C30.434 114.37 30.4266 114.352 30.42 114.333L30.341 114.114L30.2695 113.95" stroke="white" stroke-width="0.25"/>
    <path d="M36.092 119.218L36.0396 119.249L35.9813 119.321L35.8966 119.345L35.7474 119.405L35.6722 119.404L35.5127 119.366L35.359 119.311L35.2317 119.257L35.1048 119.239L35.0048 119.309L34.8854 119.342L34.6697 119.306L34.4213 119.229L34.2411 119.136L34.0944 119.061L33.8638 118.931L33.7324 118.844L33.6064 118.794L33.5353 118.791L33.4667 118.788L33.4027 118.811L33.3841 118.837L33.3733 118.858L33.3729 118.875L33.3994 118.861L33.4209 118.844L33.4477 118.835L33.5035 118.832L33.5506 118.855L33.6163 118.883L33.7754 118.964L33.9296 119.052L34.2403 119.206L34.5527 119.361L34.7135 119.388L34.9127 119.409L35.073 119.351L35.1399 119.318L35.2639 119.342L35.4784 119.428L35.6743 119.469L35.8486 119.45L35.9664 119.395L36.009 119.38L36.0284 119.372L36.0127 119.437L35.9226 119.726L35.8747 119.859L35.7561 120.008L35.5763 120.144L35.4102 120.214L35.211 120.188C35.1519 120.18 35.0945 120.164 35.0399 120.141L34.7994 120.038C34.766 120.024 34.7308 120.012 34.6953 120.004L34.4023 119.934C34.3763 119.928 34.3498 119.923 34.323 119.92L33.9502 119.878H33.7448L33.6399 119.927L33.5448 119.978L33.3775 119.863L33.2109 119.704L33.0196 119.423L32.9704 119.277L32.8981 119.047L32.8985 118.865L32.9374 118.747L33.0117 118.589L33.1126 118.482L33.2064 118.455L33.2708 118.399L33.339 118.374L33.4853 118.394L33.8568 118.434L34.03 118.482L34.1568 118.529L34.2027 118.541L34.2097 118.611L34.2725 118.745L34.3639 118.839L34.5151 118.946L34.7503 119.085L34.9961 119.108L35.1511 119.07L35.3482 119.036L35.509 119.088L35.6569 119.188L35.761 119.347L35.7825 119.371L35.8321 119.353L35.833 119.332L35.8164 119.29L35.7755 119.23L35.7329 119.157L35.6834 119.11L35.59 119.043L35.4036 118.97L35.2842 118.974L35.1457 119.003L34.9655 119.039L34.835 119.018L34.7689 119.026L34.6226 118.942L34.53 118.869L34.375 118.751L34.3064 118.651L34.2932 118.541L34.2829 118.41L34.3201 118.318L34.4949 118.214L34.6664 118.136L34.9585 118.022L35.0982 117.946L35.2482 117.882L35.4102 117.798L35.7375 117.61C35.7958 117.577 35.8486 117.534 35.8941 117.484L36.352 116.982C36.3805 116.951 36.4057 116.917 36.4276 116.881L36.5731 116.641L36.6342 116.554L36.7512 116.388L36.7656 116.116L36.7921 115.85C36.7933 115.838 36.7941 115.826 36.7946 115.813L36.8065 115.521C36.8103 115.426 36.7933 115.331 36.7565 115.243L36.6665 115.028C36.6599 115.012 36.6541 114.997 36.6487 114.981L36.5326 114.631L36.4152 114.412L36.2545 114.055C36.247 114.038 36.24 114.02 36.2338 114.003L36.0668 113.526C36.0499 113.477 36.0268 113.43 35.9986 113.387L35.7214 112.959L35.3928 112.468L35.1763 112.176C35.1428 112.13 35.104 112.09 35.0602 112.055L34.5903 111.679L34.0052 111.217C33.9824 111.199 33.9585 111.183 33.9337 111.168L33.4833 110.901C33.437 110.874 33.3874 110.852 33.3361 110.837L33.1068 110.769C33.0894 110.764 33.0721 110.76 33.0543 110.756L32.7192 110.687C32.6907 110.681 32.6617 110.677 32.6328 110.675L32.3274 110.653L32.1353 110.644L31.8914 110.742L31.6985 110.82C31.6646 110.834 31.6299 110.844 31.5943 110.852L31.4976 110.873C31.4261 110.889 31.3579 110.917 31.2955 110.955L30.9761 111.152L30.9414 111.192L30.9811 111.213L31.0455 111.191L31.2158 111.076L31.4323 110.96L31.6737 110.902L31.8497 110.851L32.0778 110.742L32.2501 110.713L32.6171 110.753C32.639 110.756 32.6609 110.759 32.6824 110.764L33.0485 110.842C33.082 110.849 33.1146 110.859 33.146 110.871L33.5006 111.008C33.5374 111.022 33.5729 111.04 33.6068 111.06L33.9213 111.253C33.9502 111.271 33.9775 111.29 34.0035 111.313L34.2407 111.515C34.2511 111.524 34.2614 111.532 34.2717 111.54L34.7015 111.864C34.718 111.876 34.7337 111.89 34.749 111.903L35.085 112.211C35.1189 112.242 35.149 112.276 35.1755 112.313L35.4023 112.63L35.5672 112.882L35.9846 113.529C36.009 113.567 36.0296 113.608 36.0458 113.651L36.3999 114.583L36.5863 115.037L36.6859 115.274C36.7247 115.367 36.7417 115.468 36.7351 115.568L36.6962 116.167C36.6908 116.256 36.6669 116.343 36.6264 116.422L36.5714 116.529C36.5631 116.545 36.5545 116.56 36.545 116.576L36.3499 116.889L36.2379 117.008L35.9594 117.324C35.9342 117.353 35.9061 117.379 35.8759 117.403L35.7222 117.526C35.6896 117.551 35.6548 117.574 35.6185 117.593L35.3123 117.753L34.4544 118.166L34.2581 118.277L34.1978 118.394L34.1705 118.447L34.0035 118.4L33.7386 118.349C33.7238 118.346 33.7089 118.343 33.6936 118.341L33.3014 118.294L33.108 118.399L32.9931 118.532C32.9138 118.624 32.8622 118.736 32.8431 118.856C32.8279 118.953 32.8349 119.053 32.8638 119.147L32.8894 119.23C32.8981 119.258 32.9088 119.286 32.9212 119.313L33.051 119.593C33.0886 119.674 33.1432 119.747 33.2105 119.806L33.4122 119.985L33.5287 120.087" stroke="white" stroke-width="0.25"/>
    <path d="M33.2157 119.237C33.1674 119.331 33.2079 119.448 33.3062 119.498C33.4042 119.548 33.5228 119.513 33.5711 119.418C33.619 119.325 33.5785 119.208 33.4806 119.157C33.3827 119.107 33.2641 119.142 33.2157 119.237Z" stroke="white" stroke-width="0.25"/>
    <path d="M33.305 119.282C33.329 119.235 33.3885 119.217 33.4372 119.242C33.4864 119.268 33.5067 119.326 33.4827 119.373C33.4583 119.42 33.3992 119.438 33.35 119.413C33.3013 119.387 33.281 119.329 33.305 119.282Z" stroke="white" stroke-width="0.25"/>
    <path d="M32.7787 112.758L32.7568 112.818L32.7535 112.954L32.8006 113.097L32.9254 113.225L33.0948 113.396L33.2109 113.539L33.2816 113.62V113.641L33.2589 113.631L33.1531 113.524L33.0465 113.429L32.8378 113.234L32.7671 113.166L32.7196 113.076L32.6828 112.969L32.6758 112.869L32.6964 112.766L32.7469 112.692L32.7659 112.714L32.8192 112.775L32.9688 112.935L33.1531 113.11L33.2907 113.217L33.3399 113.223L33.3188 113.186L33.2399 113.126L33.1287 113.012L32.9663 112.838L32.8204 112.656L32.7464 112.518L32.7192 112.406L32.7497 112.351L32.7841 112.303L32.8382 112.35L32.9688 112.484L33.1907 112.699L33.2518 112.739L33.3403 112.796L33.4047 112.806L33.3841 112.786L33.2861 112.725L33.1865 112.619L33.1064 112.54L33.0316 112.45L32.9357 112.348L32.8312 112.217L32.7998 112.131L32.806 112.053L32.8514 112.03L32.9597 112.036L33.0634 112.046L33.1766 112.072L33.2551 112.078L33.382 112.143L33.5324 112.22L33.6494 112.28L33.8775 112.487L34.042 112.668L34.1758 112.832L34.3391 113.046L34.4688 113.246L34.5412 113.411L34.6027 113.597L34.6631 113.749L34.6713 113.896L34.654 113.967L34.5589 114.223L34.487 114.363L34.4246 114.566L34.404 114.735L34.3746 114.962L34.3833 115.063L34.4073 115.16L34.442 115.243L34.4862 115.338L34.5056 115.373L34.5275 115.359L34.587 115.243L34.5523 115.122C34.5271 115.034 34.5209 114.943 34.5333 114.853L34.5515 114.724C34.556 114.69 34.5639 114.656 34.5738 114.623L34.654 114.362C34.6585 114.346 34.6639 114.331 34.6697 114.316L34.766 114.069C34.8189 113.933 34.8246 113.784 34.7825 113.644L34.7329 113.481C34.7193 113.436 34.7007 113.393 34.6779 113.351L34.5531 113.129C34.5378 113.101 34.5201 113.075 34.5007 113.05L34.2949 112.783C34.28 112.764 34.2635 112.745 34.2465 112.727L34.0581 112.534C34.0482 112.524 34.0382 112.514 34.0275 112.504L33.8039 112.303C33.77 112.272 33.7328 112.245 33.6932 112.222L33.5014 112.112L33.3349 112.026L33.3043 112.01L33.3018 111.993" stroke="white" stroke-width="0.25"/>
    <path d="M33.2843 112L33.2554 112.002L33.0752 111.968L32.8876 111.951L32.7739 111.99L32.7281 112.018L32.726 112.103L32.7438 112.202L32.7454 112.251L32.7074 112.273L32.6731 112.34L32.6504 112.404L32.6591 112.468L32.6892 112.585L32.7206 112.651L32.7293 112.676" stroke="white" stroke-width="0.25"/>
    <path d="M30.3481 113.383L30.2687 113.459L30.2179 113.598L30.2096 113.739L30.2249 113.847L30.1125 113.987L30.015 114.106L30.0658 114.303L30.096 114.442L29.9811 114.58L29.9753 114.677L30.0105 114.754L29.991 114.825L29.9642 114.811L29.8914 114.887L29.7435 114.859L29.5427 114.77C29.5154 114.758 29.4889 114.744 29.4633 114.728L29.2108 114.571L29.105 114.432L29.0637 114.23L29.1584 114.045L29.267 113.978L29.3257 113.83L29.3778 113.682L29.4042 113.657L29.2117 113.723L29.1212 113.735L28.8947 113.683L28.7782 113.595L28.674 113.561L28.5711 113.538L28.4546 113.455L28.3848 113.354L28.3852 113.235L28.4125 113.129L28.4145 113.026L28.3897 112.93L28.4273 112.889L28.5625 112.902L28.7162 113.037L28.8712 113.116L28.9621 113.163L29.0877 113.135L29.1943 113.132L29.317 113.162L29.5402 113.26L29.6427 113.251L29.696 113.266" stroke="white" stroke-width="0.25"/>
    <path d="M30.2687 113.429L30.1923 113.346L30.0505 113.284L29.9059 113.265L29.7948 113.271L29.6526 113.15L29.5332 113.046L29.3299 113.079L29.1877 113.097L29.0472 112.974L28.9476 112.96L28.8691 112.988L28.7968 112.963L28.8112 112.939L28.7344 112.861L28.7641 112.719L28.8559 112.536C28.8703 112.507 28.8873 112.479 28.9059 112.452L29.0675 112.223L29.2104 112.132L29.4183 112.108L29.6059 112.215L29.6737 112.326L29.8241 112.396L29.9753 112.459L30.0005 112.486L29.9353 112.293L29.9241 112.204L29.9799 111.987L30.0725 111.881L30.1088 111.782L30.134 111.684L30.22 111.577L30.3237 111.517L30.4464 111.527L30.5543 111.562L30.6593 111.572L30.7588 111.556L30.8002 111.596L30.7853 111.727L30.6448 111.866L30.5613 112.01L30.5121 112.096L30.539 112.22L30.5415 112.324L30.5084 112.441L30.4051 112.651L30.413 112.752L30.3973 112.803" stroke="white" stroke-width="0.25"/>
    <circle cx="32.6001" cy="115.584" r="7.21727" stroke="white" stroke-width="4"/>
</svg>
