<svg width="32" height="32" viewBox="0 0 32 32" fill="none" xmlns="http://www.w3.org/2000/svg">
<path d="M25.7462 11.0904C25.7462 11.3061 25.7462 11.5219 25.7462 11.7497C25.753 15.6681 24.1878 19.4255 21.4015 22.1793C18.6151 24.9332 14.8407 26.4532 10.9246 26.3985C8.66051 26.4061 6.42542 25.8892 4.39442 24.8881C4.2849 24.8403 4.21427 24.732 4.21468 24.6124V24.4805C4.21468 24.3084 4.35416 24.1689 4.52622 24.1689C6.75175 24.0955 8.89789 23.3239 10.661 21.9632C8.64657 21.9225 6.83411 20.7292 5.99999 18.8943C5.95787 18.7941 5.97098 18.6791 6.03462 18.5909C6.09825 18.5028 6.20319 18.4543 6.31153 18.4628C6.92375 18.5243 7.5421 18.4673 8.13279 18.2949C5.90905 17.8333 4.23814 15.9872 3.999 13.7276C3.99051 13.6192 4.03908 13.5143 4.12719 13.4505C4.21528 13.3869 4.33018 13.3737 4.43036 13.416C5.02711 13.6793 5.67131 13.818 6.32351 13.8235C4.37497 12.5446 3.53334 10.1121 4.27459 7.90163C4.35111 7.68684 4.53494 7.52816 4.75852 7.48392C4.9821 7.43967 5.21247 7.51638 5.36495 7.68586C7.99438 10.4843 11.6072 12.1519 15.4417 12.3371C15.3435 11.9451 15.2953 11.5423 15.2979 11.1383C15.3338 9.01963 16.6447 7.13228 18.617 6.35983C20.5891 5.58739 22.8323 6.08271 24.2965 7.61392C25.2943 7.4238 26.2591 7.0886 27.1601 6.61895C27.2261 6.57775 27.3098 6.57775 27.3758 6.61895C27.417 6.68498 27.417 6.7687 27.3758 6.83472C26.9394 7.83403 26.2022 8.67216 25.267 9.23226C26.0859 9.13728 26.8905 8.9441 27.6634 8.65686C27.7285 8.61256 27.8139 8.61256 27.879 8.65686C27.9335 8.68179 27.9743 8.72948 27.9905 8.78723C28.0066 8.84498 27.9965 8.90691 27.9629 8.95654C27.3437 9.78256 26.5951 10.5031 25.7462 11.0904Z" fill="white"/>
</svg>
